<svg xmlns="http://www.w3.org/2000/svg" width="512" height="512" viewBox="0 0 512 512" role="img" aria-labelledby="title desc">
  <title id="title">Contenido Propio</title>
  <desc id="desc">Monograma CP de Contenido Propio en tinta sobre fondo crema.</desc>
  <rect width="512" height="512" rx="88" fill="#F7F4EF"/>
  <path fill="#1A1714" d="M255.84 309.24Q255.84 321.72 249.29 334.05Q242.73 346.37 230.4 356.56Q218.08 366.75 200.7 372.84Q183.32 378.92 161.52 378.92Q126.12 378.92 100.29 364.15Q74.46 349.37 60.4 323.23Q46.33 297.08 46.33 263.11Q46.33 237.67 54.71 216.18Q63.08 194.69 78.17 178.73Q93.26 162.78 113.41 153.93Q133.55 145.08 156.93 145.08Q171.63 145.08 180.71 147.61Q189.8 150.14 195.33 152.74Q200.86 155.35 204.81 155.35Q209.39 155.35 212.31 152.9Q215.24 150.45 218.32 148.08Q221.4 145.71 226.14 145.71Q230.09 145.71 232.7 148.24Q235.3 150.77 237.04 156.77L253.31 212.7Q254.74 217.6 252.13 221.47Q249.52 225.34 244.62 226.61Q239.25 227.87 234.83 225.9Q230.4 223.92 228.03 218.39Q219.98 199.43 210.34 188.93Q200.7 178.42 190.19 174.23Q179.69 170.04 168.78 170.04Q157.25 170.04 148.17 175.57Q139.08 181.1 132.76 191.53Q126.44 201.96 123.12 216.73Q119.8 231.51 119.8 249.99Q119.8 280.17 127.86 300.32Q135.92 320.46 150.22 330.49Q164.52 340.53 183.32 340.53Q199.75 340.53 213.5 332.07Q227.24 323.62 236.25 307.19Q238.94 302.13 242.1 300.55Q245.26 298.97 249.05 299.76Q252.68 300.39 254.26 302.84Q255.84 305.29 255.84 309.24Z"/>
  <path fill="#1A1714" d="M465.67 234.35Q465.67 255.21 454.61 270.45Q443.55 285.7 422.77 294.07Q401.99 302.45 373.08 302.45Q354.28 302.45 339.66 298.34Q325.05 294.23 313.35 286.96L315.72 267.37Q321.73 271.64 327.26 274.32Q332.79 277.01 338.87 278.27Q344.95 279.54 352.38 279.54Q364.07 279.54 373.71 274.4Q383.35 269.27 389.12 258.76Q394.88 248.25 394.88 232.45Q394.88 214.28 388.4 201.17Q381.93 188.06 370.79 180.95Q359.65 173.84 345.27 173.84L341.48 173.84L341.48 337.52Q341.48 341.47 343.3 344.24Q345.11 347 349.54 347.95L359.02 350.01Q364.07 351.11 366.28 353.88Q368.5 356.64 368.5 361.86Q368.5 366.75 365.18 369.68Q361.86 372.6 354.91 372.6L259.48 372.6Q252.52 372.6 249.21 369.68Q245.89 366.75 245.89 361.86Q245.89 353.32 254.1 350.16L260.11 347.95Q264.22 346.37 266.19 343.92Q268.17 341.47 268.17 337.52L268.17 186.48Q268.17 182.53 266.19 180.08Q264.22 177.63 260.11 176.05L254.1 173.84Q245.89 170.68 245.89 162.14Q245.89 157.09 249.21 154.24Q252.52 151.4 259.48 151.4L347.48 151.4Q385.4 151.4 411.79 162.07Q438.17 172.73 451.92 191.45Q465.67 210.18 465.67 234.35Z"/>
  <circle cx="414" cy="128" r="13" fill="#E62117"/>
</svg>
