<svg xmlns="http://www.w3.org/2000/svg" width="1200" height="630" viewBox="0 0 1200 630" role="img" aria-labelledby="title desc">
  <title id="title">Contenido Propio</title>
  <desc id="desc">Tarjeta social de Contenido Propio para produccion premium de YouTube.</desc>
  <defs>
    <filter id="shadow" x="-20%" y="-20%" width="140%" height="140%">
      <feDropShadow dx="0" dy="24" stdDeviation="28" flood-color="#1A1714" flood-opacity="0.16"/>
    </filter>
    <pattern id="grain" width="120" height="120" patternUnits="userSpaceOnUse">
      <circle cx="18" cy="24" r="1" fill="#1A1714" opacity="0.035"/>
      <circle cx="82" cy="38" r="0.8" fill="#1A1714" opacity="0.028"/>
      <circle cx="42" cy="92" r="0.9" fill="#7A4E2B" opacity="0.03"/>
      <circle cx="108" cy="88" r="1" fill="#1A1714" opacity="0.024"/>
    </pattern>
  </defs>
  <rect width="1200" height="630" fill="#F7F4EF"/>
  <rect width="1200" height="630" fill="url(#grain)"/>
  <path d="M820 80 C1000 38 1132 120 1160 276 C1193 462 1040 576 850 542 C715 518 626 423 652 290 C674 174 734 100 820 80Z" fill="#E9DFD0" opacity="0.72"/>
  <rect x="78" y="78" width="1044" height="474" rx="26" fill="#FFFDF9" opacity="0.64" filter="url(#shadow)"/>
  <rect x="106" y="106" width="988" height="418" rx="18" fill="none" stroke="#1A1714" stroke-opacity="0.1"/>
  <g transform="translate(144 132)">
    <rect x="0" y="0" width="76" height="76" rx="18" fill="#1A1714"/>
    <circle cx="56" cy="20" r="5" fill="#E62117"/>
    <text x="38" y="50" text-anchor="middle" font-family="Inter, Arial, sans-serif" font-size="26" font-weight="750" fill="#F7F4EF">CP</text>
    <text x="112" y="45" font-family="Inter, Arial, sans-serif" font-size="22" font-weight="700" letter-spacing="3" fill="#7A4E2B">CONTENIDO PROPIO</text>
  </g>
  <g transform="translate(144 278)">
    <rect x="0" y="-86" width="92" height="2" fill="#E62117"/>
    <text x="0" y="0" font-family="Fraunces, Georgia, serif" font-size="61" font-weight="650" fill="#1A1714">Producción premium</text>
    <text x="0" y="80" font-family="Fraunces, Georgia, serif" font-size="72" font-weight="650" fill="#7A4E2B">para YouTube</text>
    <text x="2" y="154" font-family="Inter, Arial, sans-serif" font-size="29" font-weight="500" fill="#3A312A">Edición, miniaturas, SEO y publicación semanal.</text>
  </g>
  <g transform="translate(886 218)">
    <rect x="0" y="0" width="176" height="196" rx="22" fill="#1A1714"/>
    <rect x="25" y="30" width="108" height="8" rx="4" fill="#F7F4EF" opacity="0.9"/>
    <rect x="25" y="57" width="130" height="8" rx="4" fill="#F7F4EF" opacity="0.35"/>
    <rect x="25" y="96" width="50" height="50" rx="12" fill="#F7F4EF" opacity="0.92"/>
    <path d="M44 111 L44 132 L63 121.5 Z" fill="#E62117"/>
    <rect x="91" y="105" width="64" height="7" rx="3.5" fill="#F7F4EF" opacity="0.78"/>
    <rect x="91" y="127" width="50" height="7" rx="3.5" fill="#F7F4EF" opacity="0.35"/>
    <path d="M26 169 C54 152 78 155 100 139 C124 122 138 96 157 84" fill="none" stroke="#E62117" stroke-width="4" stroke-linecap="round"/>
  </g>
</svg>
